<?xml version="1.0" encoding="utf-8" ?><svg xmlns="http://www.w3.org/2000/svg" xmlns:xlink="http://www.w3.org/1999/xlink" width="1043" height="1008" viewBox="0 0 1043 1008"><path fill="#F5BE20" d="M256.881 421.326C275.489 395.071 304.384 379.299 335.742 373.964C359.57 369.91 372.272 374.515 394.738 375.385C412.131 376.059 429.867 372.196 446.335 366.9C454.54 364.262 467.806 357.892 475.743 363.849C478.638 366.022 479.932 369.288 480.308 372.794C481.27 381.75 477.034 393.875 475.238 402.772C473.618 410.645 472.544 418.62 472.023 426.641C470.88 447.441 475.238 464.906 477.432 485.192C478.369 502.037 475.503 522.447 469.057 537.877C464.309 549.239 458.004 562.219 450.191 571.225C404.323 624.091 326.197 630.255 272.507 584.58C250.436 565.804 236.016 534.888 233.588 507.157C231.763 488.402 234.14 469.477 240.547 451.756C241.797 444.931 252.272 427.02 256.881 421.326ZM369.83 428.443L369.859 465.109C369.87 471.266 370.052 477.54 369.636 483.668C369.386 487.348 364.915 488.915 362.086 486.674C359.688 481.694 361.333 474.559 360.96 469.07C360.874 467.805 360.756 461.917 361.006 461.189C359.701 456.632 360.194 450.381 360.771 445.768C361.762 438.633 362.093 421.69 358.205 415.202C356.673 412.645 352.798 410.37 350.02 412.771C346.595 415.732 345.239 421.037 344.916 425.464C344.616 436.706 344.772 448.012 345.112 459.255C345.289 465.121 346.13 471.336 345.73 477.168C345.452 481.217 345.471 488.613 340.144 488.591C338.535 487.899 337.747 487.095 337.127 485.481C332.937 474.565 341.543 431.319 330.689 426.586C329.019 425.858 326.94 426.079 325.33 426.836C323.429 427.728 321.924 429.492 320.561 431.044C319.071 442.048 320.364 453.982 319.967 464.87C319.599 474.992 323.016 503.831 319.218 512.152C311.792 517.397 298.376 485.812 288.421 490.597C287.431 491.073 283.161 495.719 282.927 496.78C283.612 505.525 296.792 521.2 302.09 528.593C310.208 539.92 316.881 552.798 327.508 561.841C341.386 573.791 353.2 572.763 370.607 572.338C388.57 571.899 404.502 557.492 408.831 540.308C411.134 531.164 409.684 516.849 410.065 507.298C410.344 494.043 410.385 480.776 409.188 467.567C408.606 461.147 410.167 452.198 407.57 446.286C404.668 439.679 398.311 444.386 395.46 447.736L395.312 448.419C392.806 460.403 396.104 478.701 394.532 491.278C394.299 493.148 390.899 494.694 389.306 493.852C383.596 492.013 385.062 481.391 385.076 476.228L385.23 445.671C385.253 441.422 385.541 433.104 384.983 429.214C379.055 420.943 375.978 419.055 369.83 428.443Z"/><path fill="#EFE1A5" d="M360.771 445.768C361.948 447.69 362.141 459.982 361.006 461.189C359.701 456.632 360.194 450.381 360.771 445.768Z"/><path fill="#4485BF" d="M351.687 28.2422C355.51 27.8623 365.393 28.6657 369.301 29.1289C399.743 32.737 430.489 47.8112 449.692 71.9865C470.192 97.7936 479.497 130.506 474.758 163.18C472.488 178.828 469.124 191.73 470.541 207.921C471.204 215.883 472.295 223.804 473.81 231.648C475.857 242.181 480.521 255.199 479.662 265.914C479.32 270.175 476.663 272.974 473.353 275.368C457.715 277.964 434.817 265.997 417.22 264.714C399.93 263.454 392.169 265.173 375.573 267.755C370.817 268.479 366.037 269.037 361.242 269.427C328.776 271.954 296.645 261.41 271.987 240.137C211.761 187.765 221.706 88.3068 288.933 46.8467C309.071 34.4272 328.25 29.6285 351.687 28.2422ZM310.771 88.1399C301.288 91.5301 295.504 97.9909 298.381 108.854C302.071 122.789 314.584 120.878 319.365 126.922C319.728 129.262 318.527 132.31 315.776 131.941C304.739 130.462 297.35 125.195 291.137 116.222C285.724 121.625 281.99 125.546 281.673 133.909C281.297 143.118 288.332 151.761 296.967 154.38C299.663 154.851 304.063 155.744 306.696 155.823C311.721 155.974 322.226 162.004 321.481 167.961C320.16 178.514 310.644 166.144 309.331 165.609C297.897 160.949 291.36 163.645 281.485 154.637C274.462 168.218 278.402 175.563 289.799 184.249C289.715 197.769 291.766 205.118 306.468 208.835C307.363 194.614 313.078 184.685 327.633 180.22C329.807 179.553 334.16 179.663 335.775 181.567C336.041 182.92 335.978 183.431 335.207 184.608C331.384 190.449 312.491 190.536 315.29 209.944C316.017 214.981 318.649 219.303 322.802 222.262C326.489 224.889 331.112 226.081 335.584 225.193C340.851 224.146 345.418 220.202 348.175 215.699C352.747 208.234 351.342 197.154 350.57 188.786C349.958 182.933 350.145 175.107 350.165 169.152C350.176 159.725 350.247 150.298 350.376 140.871C349.663 129.026 350.671 116.598 350.306 104.59C350.123 98.5712 350.877 93.7739 349.493 87.2459C346.699 74.0731 333.323 69.2515 323.454 78.8161C320.424 81.7518 320.352 85.8489 320.537 90.0136L320.859 90.585C326.056 99.6068 333.27 97.1794 334.613 102.828C332.689 108.013 326.828 106.382 322.892 104.436C317.358 101.699 314.467 97.5911 312.27 91.9266L310.771 88.1399ZM359.025 157.703C360.596 162.306 360.301 190.254 359.966 196.331C360.286 203.118 358.838 210.392 362.29 216.51C366.587 224.125 378.806 227.524 386.017 222.06C395.487 214.86 394.702 210.14 393.344 200.689C391.537 188.106 372.337 188.479 373.627 181.38C375.173 179.437 379.476 179.202 381.66 179.689C396.103 182.907 402.484 195.214 403.556 208.253L404.059 208.08L404.894 207.782C417.722 203.324 420.415 195.984 420.094 183.506C426.549 176.372 437.217 167.953 428.369 154.7C427.359 153.187 421.4 159.255 419.684 159.949C414.381 162.094 408.159 162.507 402.45 163.276C399.43 166.171 394.429 172.682 390.29 170.938C386.073 166.074 390.808 160.526 395.25 158.001C400.989 154.739 407.231 155.176 413.202 153.137C416.468 152.056 419.448 150.252 421.92 147.86C425.982 143.864 427.274 139.129 427.352 133.61C427.482 124.518 423.471 120.902 417.592 114.967C416.852 116.143 416.093 117.306 415.316 118.458C411.144 124.6 397.05 134.65 389.864 129.709C386.888 123.748 397.233 122.349 400.416 120.395C404.612 117.819 409.101 112.868 410.631 108.187C411.926 104.217 411.55 99.8902 409.589 96.2027C406.674 90.7067 402.156 88.6088 396.641 86.8358C393.947 107.556 373.002 110.548 374.51 101.561C380.029 94.5705 386.638 97.6824 388.564 84.3239C383.7 73.1094 373.206 70.0505 363.939 78.3562C357.204 84.3929 358.942 95.9532 358.952 104.278L359.056 145.019C359.069 147.24 359.457 156.474 359.025 157.703Z"/><path fill="#4485BF" d="M330.819 125.215C339.102 124.604 338.642 130.834 335.82 136.567C332.515 143.278 328.82 145.966 322.028 148.474C320.938 148.644 317.966 149 317.14 148.423C309.409 143.021 322.667 139.731 324.813 137.735C328.35 134.444 328.379 129.181 330.819 125.215Z"/><path fill="#4485BF" d="M374.06 124.74C382.379 124.769 379.577 133.479 384.967 138.037C388.547 141.064 399.171 142.562 391.312 148.981C378.356 146.776 374.029 142.131 371.5 129.653C372.284 127.069 372.257 126.599 374.06 124.74Z"/><path fill="#80A3C7" d="M359.966 196.331C359.582 198.036 359.428 201.323 359.285 203.18C358.22 199.518 357.976 161.308 359.025 157.703C360.596 162.306 360.301 190.254 359.966 196.331Z"/><path fill="#80A3C7" d="M350.376 140.871C351.381 147.172 352.061 182.163 351.246 188.643L350.57 188.786C349.958 182.933 350.145 175.107 350.165 169.152C350.176 159.725 350.247 150.298 350.376 140.871Z"/><path fill="#46A662" d="M600.468 360.186C611.083 359.667 618.466 362.959 628.594 365.819C639.131 368.795 647.986 370.96 658.957 372.054C683.663 374.517 703.872 365.989 728.686 368.862C760.563 372.553 789.808 386.822 809.978 412.066C830.199 437.408 839.505 469.757 835.839 501.972C832.751 528.732 818.154 562.087 796.701 579.131C756.517 615.385 697.622 620.374 651.378 592.591C624.747 576.691 605.667 550.708 598.466 520.537C594.848 505.816 593.84 490.575 595.487 475.506C596.437 466.084 598.245 456.679 598.978 447.247C600.341 429.705 597.753 412.539 594.389 395.377C592.307 384.757 584.393 363.395 600.468 360.186ZM746.329 437.796C740.448 446.489 733.199 456.837 726.846 465.129C714.061 459.309 707.936 462.15 696.563 468.498C689.343 462.313 679.423 452.32 672.653 447.155C675.03 440.396 676.867 434.104 673.588 427.014C671.668 422.861 666.832 418.539 662.426 417.101C658.107 415.725 653.419 416.124 649.395 418.211C639.451 423.29 634.943 434.976 640.404 445.046C642.762 449.464 646.825 452.726 651.648 454.074C658.063 455.798 662.783 454.03 668.19 451.005C673.884 456.074 679.088 461.659 684.869 466.634C687.45 468.855 689.9 471.206 692.249 473.671C685.957 484.398 685.309 491.903 690.327 503.383C683.73 508.645 668.472 520.22 661.589 524.412C642.469 512.21 629.435 539.9 646.645 548.593C649.826 550.179 653.526 550.358 656.845 549.086C666.437 545.474 666.984 537.253 665.749 530.494C665.482 529.034 676.853 521.581 679.127 519.701C683.566 516.556 690.219 511.04 694.574 508.743C703.159 516.065 704.915 516.374 716.244 517.366C717.983 525.19 719.88 533.752 720.969 541.647C702.285 554.979 719.455 577.145 735.058 566.494C742.059 561.715 743.782 551.106 737.659 545.078C734.785 541.784 731.204 540.683 727.246 539.366C725.598 533.002 723.648 522.584 722.998 516.002C730.497 511.775 734.848 507.513 739.579 500.22C748.137 502.579 757.623 504.997 765.975 507.786C768.038 513.035 770.444 519.434 776.082 521.609C783.865 524.61 792.158 520.53 794.668 512.773C795.954 508.879 795.602 504.629 793.692 500.999C789.784 493.4 781.271 491.069 774.193 495.743C772.085 497.135 770.047 499.309 768.25 501.101C760.694 498.448 749.201 495.017 741.352 493.324C741.623 481.589 740.119 477.716 732.539 468.838C734.504 464.955 748.672 444.728 751.325 442.04C756.873 442.768 760.955 443.293 765.848 439.521C768.952 437.148 770.925 433.587 771.291 429.696C772.078 420.95 765.331 413.538 756.462 413.703C743.632 415.788 739.697 427.049 746.329 437.796Z"/><path fill="#E04B40" d="M708.643 25.6816C740.416 20.8335 786.343 40.5744 806.769 64.9994C877.293 149.329 815.289 275.037 702.342 266.054C678.176 263.751 662.307 258.208 637.193 265.776C619.683 271.053 582.838 287.682 591.054 252.366C592.67 245.421 594.175 237.717 595.642 230.687C599.044 215.11 599.804 199.072 597.89 183.243C596.665 173.518 594.278 163.659 593.766 153.859C590.1 83.8128 640.614 31.1828 708.643 25.6816ZM678.453 88.8332C654.932 90.7938 641.112 110.478 643.74 133.027C647.09 161.774 679.793 187.725 700.582 204.596L715.186 216.368C721.298 211.991 741.589 196.143 746.566 191.055C763.128 175.801 785.486 155.828 787.515 131.685C789.442 108.743 774.685 89.4216 751.051 88.5322C734.425 87.9065 725.415 96.3922 715.445 108.678C705.225 96.6603 695.728 87.1713 678.453 88.8332Z"/><path fill="#1C4E75" d="M648.81 275.66C651.468 275.54 653.729 275.675 656.112 277.026C658.889 278.623 660.91 281.27 661.719 284.371C662.731 288.209 661.901 292.299 659.474 295.439C655.198 300.985 646.994 305.13 640.592 308.846C620.754 320.287 590.763 331.378 579.333 352.353C572.82 364.303 576.103 395.032 577.203 408.83C578.664 425.949 579.946 443.083 581.049 460.228C581.777 471.935 583.901 487.603 577.629 497.905C572.761 500.561 568.867 501.673 563.4 499.275C556.305 496.163 554.762 489.071 552.999 482.384C549.043 467.373 545.473 452.336 541.46 437.347C540.605 434.156 539.462 427.54 537.769 424.935C535.767 424.022 534.03 424.278 531.788 424.307C527.259 438.748 517.665 488.954 511.259 496.917C509.444 499.172 507.066 500.481 504.179 500.768C500.739 501.109 495.395 500.035 492.789 497.65C488.583 493.802 488.431 487.236 488.331 481.948C488.204 476.142 488.831 469.755 489.11 463.827C489.961 445.693 491.738 427.819 493.068 409.703C493.873 394.115 496.71 375.658 493.253 360.395C488.484 339.344 464.423 329.068 447.358 319.817C437.549 314.501 427.815 309.779 418.327 304.028C413.593 301.159 408.277 296.906 407.08 291.334C405.624 284.989 412.391 276.939 419.024 277.667C432.603 279.421 444.848 288.505 458.013 292.584C471.594 296.791 485.176 300.507 499.229 302.841C537.662 309.055 577.06 304.798 613.28 290.517C623.619 286.459 639.364 277.731 648.81 275.66Z"/><path fill="#1C4E75" d="M279.16 671.279C300.028 669.733 318.179 685.443 319.645 706.32C321.11 727.197 305.332 745.29 284.453 746.675C263.687 748.053 245.716 732.378 244.258 711.614C242.8 690.85 258.405 672.816 279.16 671.279ZM285.814 731.387C292 729.67 296.613 726.755 299.799 721.017C306.002 709.845 302.178 693.954 290.58 687.859C285.981 685.441 282.612 685.842 277.834 686.201C252.011 694.684 256.714 734.208 285.814 731.387Z"/><path fill="#1C4E75" d="M534.359 668.289C554.877 664.712 574.417 678.425 578.033 698.94C581.649 719.454 567.975 739.023 547.47 742.678C526.91 746.344 507.28 732.623 503.654 712.053C500.029 691.483 513.785 671.876 534.359 668.289ZM544.656 727.891C569.848 720.83 566.804 681.313 538.439 682.654C511.718 687.611 514.194 730.927 544.656 727.891Z"/><path fill="#1C4E75" d="M533.334 219.249C553.169 218.508 569.883 233.915 570.759 253.746C571.635 273.577 556.343 290.398 536.521 291.408C516.508 292.428 499.493 276.955 498.609 256.933C497.724 236.911 513.31 219.998 533.334 219.249Z"/><path fill="#1C4E75" d="M195.72 673.59C215.112 672.872 237.881 674.37 236.877 701.411C236.547 710.293 230.869 717.254 224.286 722.793L239.096 746.126C236.096 746.401 229.83 746.69 226.811 746.388C221.593 745.864 220.466 744.577 217.604 740.927C214.406 736.101 210.664 730.493 208.131 725.332L193.82 725.399C193.782 728.8 194.448 732.314 194.484 735.887C194.522 739.661 194.198 743.062 194.042 746.825C188.558 746.707 182.784 746.797 177.274 746.806L177.31 673.819C183.447 673.879 189.586 673.803 195.72 673.59ZM193.913 711.635C200.059 711.586 211.588 712.421 216.253 708.603C219.103 705.694 220.548 703.916 220.534 699.588C220.523 698.329 220.479 697.071 220.402 695.815C213.335 684.538 205.635 687.523 193.631 687.626C193.71 692.606 194.081 697.092 194.313 702.023C194.456 705.07 193.92 708.526 193.913 711.635Z"/><path fill="#1C4E75" d="M107.344 674.523C126.643 675.685 159.601 667.9 166.352 692.674C168.446 700.125 167.422 708.107 163.513 714.788C159.175 722.055 153.094 724.062 145.534 725.932C137.919 726.914 131.437 726.79 123.793 726.744C124.201 735.211 124.785 738.398 124.384 747.638L107.373 747.723C107.255 724.15 106.774 697.927 107.344 674.523ZM123.845 712.582C130.374 712.503 141.336 713.367 146.354 709.562C149.467 706.065 150.954 704.647 150.678 699.669C149.869 685.085 133.975 688.835 123.83 688.558C124.129 698.006 124.812 702.726 123.845 712.582Z"/><path fill="#1C4E75" d="M749.707 666.29C754.545 666.238 759.411 666.108 764.257 666.145C775.989 666.233 789.471 664.549 799.626 671.757C812.303 680.755 811.723 702.667 799.8 712.041C795.447 715.462 790.766 716.753 785.423 717.568C778.421 718.219 773.029 718.15 765.973 718.13C766.131 725.897 766.274 731.221 765.93 738.966C760.331 738.828 755.135 738.937 749.542 739.071C749.583 736.98 749.414 734.86 749.399 732.767C749.247 710.672 748.809 688.357 749.707 666.29ZM765.886 704.29C771.969 704.093 783.293 704.799 788.079 701.765C790.992 698.825 792.289 696.614 792.374 692.4C792.681 677.194 776.518 679.839 766.206 680.19C765.465 684.571 766.84 696.352 765.886 704.29Z"/><path fill="#1C4E75" d="M881.843 664.689C881.788 668.427 881.856 669.516 882.501 673.193C883.227 679.034 883.481 733.757 882.134 737.416L865.349 737.516C865.216 728.01 865.076 717.341 865.535 707.925C855.605 707.818 845.17 708.02 835.205 708.077C835.698 719.736 835.722 726.575 835.016 738.206C829.798 737.907 824.158 738.094 818.901 738.161C818.91 736.321 818.744 734.565 818.604 732.735C818.045 726.558 817.646 668.091 819.051 665.41L835.163 665.597C835.617 676.141 835.685 683.242 835.168 693.721C845.274 693.288 855.391 693.138 865.505 693.27C865.117 683.865 865.166 674.448 865.653 665.048C870.615 664.966 876.991 665.019 881.843 664.689Z"/><path fill="#4485BF" d="M882.134 737.416C881.325 733.679 881.54 716.038 881.574 711.639C881.615 706.192 880.717 676.15 882.501 673.193C883.227 679.034 883.481 733.757 882.134 737.416Z"/><path fill="#80A3C7" d="M818.604 732.735C818.045 726.558 817.646 668.091 819.051 665.41C819.719 670.41 819.644 731.39 818.982 732.712L818.604 732.735Z"/><path fill="#1C4E75" d="M637.87 667.869C643.368 667.703 648.869 667.683 654.368 667.808C657.405 673.935 660.371 681.915 663.169 688.316C670.633 705.389 677.488 723.259 685.409 740.094C679.755 740.045 674.101 740.062 668.448 740.146C665.776 735.005 663.586 730.356 661.798 724.813L655.058 724.847C646.893 724.822 638.727 724.946 630.566 725.22C628.625 730.439 626.593 735.624 624.473 740.774C618.99 740.733 613.506 740.801 608.025 740.977C610.543 733.248 616.95 718.743 620.219 710.865C625.894 697.19 631.801 681.179 637.87 667.869ZM636.361 711.226L646.847 711.16L656.467 711.193C654.885 707.732 647.744 689.067 646.171 687.891C642.381 693.519 638.299 704.497 636.361 711.226Z"/><path fill="#1C4E75" d="M921.773 664.414C926.02 664.148 929.78 664.218 934.018 664.283C937.109 669.121 941.544 680.536 943.939 686.298L958.312 720.359C959.871 724.019 963.62 733.3 965.752 736.238C959.75 736.604 953.47 736.524 947.441 736.551L942.136 721.158L930.225 721.309C923.594 721.443 916.961 721.488 910.329 721.443C903.072 740.057 908.128 737.174 887.744 737.075C890.303 731.972 893.477 723.536 895.792 717.919L910.64 681.85C912.702 676.845 915.185 670.119 917.895 665.404C918.458 664.425 920.56 664.486 921.773 664.414ZM915.743 708.086L926.086 707.971L936.7 707.936C933.767 700.907 928.914 690.279 926.531 683.386C922.149 689.216 918.742 700.985 915.743 708.086Z"/><path fill="#1C4E75" d="M382.932 671.179C397.829 671.006 420.83 671.46 434.935 670.45L434.852 684.345L398.983 684.713C399.027 689.74 399.139 694.873 398.954 699.889C409.519 699.458 420.093 699.293 430.667 699.394C430.687 703.959 430.614 708.523 430.449 713.085C420.771 712.844 408.649 712.947 398.931 713.259C399.042 718.57 399.293 724.395 399.01 729.658C411.301 729.151 424.146 729.185 436.489 729.095C436.553 732.962 436.454 739.65 436.815 743.289C430.783 743.278 384.718 744.406 382.799 743.599C382.385 741.808 382.465 741.582 382.519 739.789C381.87 722.177 381.772 695.603 382.563 678.176C382.642 675.781 382.697 673.571 382.932 671.179Z"/><path fill="#3A6185" d="M382.563 678.176C383.813 682.953 383.486 697.257 383.484 702.701L383.401 741.664L383.103 741.959L383.228 742.347L383.373 741.943L382.978 741.603L382.519 739.789C381.87 722.177 381.772 695.603 382.563 678.176Z"/><path fill="#1C4E75" d="M327.873 671.787C341.301 671.842 354.812 671.325 368.285 671.245C368.607 682.111 368.755 692.982 368.73 703.853C368.76 722.472 370.034 745.259 344.586 745.568C338.486 745.642 321.323 742.303 321.29 734.616C322.441 731.64 326.931 725.556 329.191 723.31C333.507 726.758 338.759 731.974 344.621 731.076C351.49 730.023 351.68 723.021 351.491 717.749C350.994 709.38 351.081 699.095 351.527 690.775C351.64 688.957 351.764 687.36 351.967 685.55C344.024 685.613 335.328 685.499 327.452 685.775C327.514 681.11 327.655 676.447 327.873 671.787Z"/><path fill="#80A3C7" d="M351.527 690.775C352.979 693.221 352.915 715.141 351.491 717.749C350.994 709.38 351.081 699.095 351.527 690.775Z"/><path fill="#1C4E75" d="M440.813 670.349C459.045 669.746 483.154 670.935 500.613 669.512C500.482 674.321 500.416 679.232 500.035 684.019C493.543 683.494 485.391 684.007 478.742 684.017C478.775 686.911 479.68 691.24 479.65 692.292C480.143 704.371 479.962 719.08 479.678 731.229C479.862 732.774 479.122 740.215 479.092 742.992C474.864 742.595 466.624 742.732 462.392 742.947C462.372 723.52 462.056 703.402 462.566 684.04C455.997 684.079 447.753 683.974 441.327 684.448C441.033 684.262 440.629 683.822 440.358 683.558C440.102 679.98 439.702 673.614 440.813 670.349Z"/><path fill="#B3C2CD" d="M479.678 731.229L479.263 731.196C478.328 729.518 478.708 696.858 478.894 692.713L479.65 692.292C480.143 704.371 479.962 719.08 479.678 731.229Z"/><path fill="#3A6185" d="M440.813 670.349C441.93 672.613 441.773 681.894 441.327 684.448C441.033 684.262 440.629 683.822 440.358 683.558C440.102 679.98 439.702 673.614 440.813 670.349Z"/><path fill="#1C4E75" d="M702.027 667.016C704.287 666.824 704.871 666.693 707.058 667.073C708.436 669.711 707.893 718.935 707.566 725.304C718.638 724.893 730.379 725.012 741.6 724.715L741.828 739.097L730.516 739.237C717.542 739.752 703.861 739.163 691.14 739.911L691.171 667.123L702.027 667.016Z"/><path fill="#1C4E75" d="M632.813 778.703C634.897 777.674 647.935 778.258 651.246 778.231C674.661 778.036 679.612 810.599 660.413 819.79C654.202 822.764 640.004 822.017 633.043 821.97C631.463 818.708 631.54 782.78 632.813 778.703ZM641.559 794.155C641.991 798.694 642.385 806.784 641.223 811.19C641.191 812.221 641.231 812.896 641.28 813.925L642.102 814.606C648.046 814.791 654.072 815.439 659.063 811.424C665.689 806.178 665.519 795.01 659.974 789.078C655.573 784.37 646.751 785.368 640.743 785.446C640.652 788.743 640.504 791.016 641.559 794.155Z"/><path fill="#4485BF" d="M632.813 778.703C633.808 781.017 634.056 819.42 633.043 821.97C631.463 818.708 631.54 782.78 632.813 778.703Z"/><path fill="#80A3C7" d="M641.223 811.19C640.432 808.267 640.476 797.653 640.865 794.59L641.559 794.155C641.991 798.694 642.385 806.784 641.223 811.19Z"/><path fill="#1C4E75" d="M435.207 781.276C447.36 779.763 458.441 788.381 459.97 800.533C461.499 812.685 452.899 823.78 440.751 825.327C428.578 826.876 417.457 818.254 415.925 806.077C414.393 793.9 423.03 782.791 435.207 781.276ZM439.359 818.303C456.001 814.951 455.309 788.155 436.835 788.089C418.363 792.06 421.68 818.998 439.359 818.303Z"/><path fill="#1C4E75" d="M237.876 784.321C249.848 782.123 261.35 789.998 263.633 801.956C265.916 813.914 258.124 825.474 246.185 827.843C234.124 830.235 222.423 822.346 220.117 810.266C217.81 798.187 225.782 786.541 237.876 784.321ZM244.699 821.022C248.379 819.817 251.884 816.688 253.588 813.243C255.518 809.245 255.76 804.64 254.26 800.461C251.767 793.377 246.591 790.72 239.465 791.119C222.763 797.188 225.36 822.421 244.699 821.022Z"/><path fill="#1C4E75" d="M363.396 850.137C375.361 847.846 386.93 855.65 389.289 867.603C391.648 879.557 383.91 891.172 371.971 893.598C359.937 896.043 348.211 888.229 345.834 876.18C343.456 864.13 351.335 852.447 363.396 850.137ZM368.258 887.085C382.671 885.162 385.026 865.974 374.347 858.8C372.198 857.356 369.633 856.661 367.048 856.822C347.607 859.939 352.184 888.015 368.258 887.085Z"/><path fill="#1C4E75" d="M327.028 782.867C339.114 781.505 350.032 790.155 351.474 802.233C352.915 814.311 344.338 825.288 332.271 826.809C320.092 828.344 308.991 819.669 307.537 807.478C306.082 795.287 314.829 784.242 327.028 782.867ZM332.635 819.827C336.651 818.145 340.566 815.457 341.772 811.157C345.203 798.925 339.435 788.947 326.499 790.103C318.32 793.761 313.671 803.393 317.578 811.902C319.222 815.503 322.304 818.247 326.071 819.461C328.141 820.123 330.468 819.945 332.635 819.827Z"/><path fill="#1C4E75" d="M303.086 851.094C313.052 850.985 328.561 849.21 335.946 856.733C343.973 864.91 344 881.224 335.299 888.931C327.057 896.342 313.369 894.208 303.138 894.678C303.082 891.885 303.136 889.04 302.664 886.3C301.698 877.664 301.757 865.716 302.663 857.073C302.809 855.097 302.987 853.067 303.086 851.094ZM310.804 887.375C317.183 887.325 323.637 888.138 328.744 884.208C332.517 879.922 334.227 876.897 333.573 870.985C331.927 856.088 320.457 858.244 310.559 858.192C310.814 869.766 312.885 875.98 310.804 887.375Z"/><path fill="#4485BF" d="M302.663 857.073C303.82 860.582 304.316 883.662 302.664 886.3C301.698 877.664 301.757 865.716 302.663 857.073Z"/><path fill="#1C4E75" d="M832.118 842.944C844.182 841.338 855.266 849.809 856.886 861.873C858.506 873.936 850.049 885.032 837.989 886.666C825.909 888.303 814.793 879.828 813.171 867.745C811.548 855.662 820.034 844.553 832.118 842.944ZM834.481 880.086C853.286 877.963 852.878 851.487 835.614 849.782C817.341 851.506 816.915 877.15 834.481 880.086Z"/><path fill="#1C4E75" d="M215.201 852.19C225.255 852.047 239.898 850.291 247.878 857.624C256.548 865.591 256.305 881.241 248.662 889.869C239.866 897.211 226.386 895.842 215.352 895.877C215.144 881.351 215.305 866.736 215.201 852.19ZM223.509 883.485C223.647 884.77 223.316 886.938 223.159 888.313C232.017 888.325 242.412 889.569 245.736 878.928C247.04 874.636 246.498 869.995 244.24 866.119C242.232 862.687 239.126 860.317 235.226 859.504C233.378 859.118 224.879 858.815 223.307 859.839L222.989 861.78C224.266 867.982 224.054 877.146 223.509 883.485Z"/><path fill="#3A6185" d="M222.989 861.78C224.266 867.982 224.054 877.146 223.509 883.485C221.979 880.004 222.282 865.86 222.989 861.78Z"/><path fill="#1C4E75" d="M527.716 847.168L540.06 847.046C550.371 847.015 561.489 849.351 561.093 862.707C560.914 868.75 557.648 872.96 553.24 876.814C554.885 879.181 561.69 888.418 561.881 890.501C559.862 891.14 557.177 890.902 554.985 890.865C551.51 890.405 546.856 881.044 545.444 877.863L535.733 878.145C535.759 882.412 535.695 886.747 535.673 891.021C533.032 890.921 530.187 891.022 527.53 891.061C526.827 876.437 526.889 861.786 527.716 847.168ZM535.5 871.133C540.382 871.09 546.171 871.696 550.086 869.038C553.314 865.487 555.57 860.747 551.079 857.061C546.609 853.392 540.726 854.149 535.328 854.318C535.747 859.626 535.993 865.822 535.5 871.133Z"/><path fill="#1C4E75" d="M447.251 848.627C458.655 848.347 478.178 845.517 480.62 860.6C482.399 871.587 475.765 877.378 465.944 879.049L454.884 879.302C454.972 883.769 455.263 887.575 455.2 892.163L447.183 892.428C447.204 883.627 447.177 874.825 447.102 866.024C447.051 860.855 446.759 853.591 447.251 848.627ZM454.849 872.383C458.215 872.249 466.649 872.427 469.121 870.656L472.611 867.09C472.705 862.451 472.979 861.254 469.663 857.821C468.993 857.13 468.315 856.449 467.627 855.777C463.343 855.697 459.058 855.691 454.774 855.761C455.566 864.679 456.409 862.782 454.849 872.383Z"/><path fill="#1C4E75" d="M748.558 776.737C751.025 776.79 753.372 776.688 755.834 776.603C756.04 779.242 756.334 781.972 756.587 784.616C757.162 791.846 756.92 800.689 756.767 808.018C756.949 811.567 756.647 816.742 756.541 820.405L749.786 820.194C742.851 813.339 737.67 803.084 728.985 794.495C729.289 802.282 728.844 813.015 728.764 821.03C725.922 820.826 723.025 820.867 720.171 820.854C719.914 814.066 719.568 782.753 721.18 777.799C727.507 772.47 742.344 797.971 747.537 803.268L748.066 803.803C748.075 794.779 748.239 785.755 748.558 776.737Z"/><path fill="#3A6185" d="M756.767 808.018C755.607 803.449 755.271 789.494 755.974 784.868L756.587 784.616C757.162 791.846 756.92 800.689 756.767 808.018Z"/><path fill="#1C4E75" d="M401.761 781.786C404.017 781.711 406.673 781.551 408.892 781.558C410.342 796.959 410.021 810.271 409.692 825.84L403.164 825.566C395.81 817.618 389.372 807.307 382.032 799.107C381.977 807.543 382.176 817.846 381.617 826.133C379.04 826.119 376.237 826.046 373.681 826.147L373.406 819.655C372.918 811.465 373.228 801.227 373.343 792.995C373.357 790.707 373.235 784.093 374.221 782.309C380.867 779.297 396.808 803.721 401.03 808.932C401.059 799.878 401.302 790.827 401.761 781.786Z"/><path fill="#4485BF" d="M373.343 792.995C374.884 799.172 374.379 813.001 374.133 819.852C373.514 819.798 373.735 819.918 373.406 819.655C372.918 811.465 373.228 801.227 373.343 792.995Z"/><path fill="#1C4E75" d="M581.05 846.634C583.404 846.526 586.123 846.607 588.506 846.619C589.64 848.587 590.871 851.315 591.729 853.412C596.746 865.673 602.295 877.899 606.932 890.295L598.991 890.26C597.142 886.361 596.085 884.344 595.04 880.2L588.343 880.211C584.056 880.279 579.77 880.321 575.483 880.338C574.092 884.029 572.941 887.051 571.254 890.604L562.487 890.9C565.277 886.611 566.683 881.701 568.692 877.137C572.813 867.778 576.626 855.604 581.05 846.634ZM578.824 873.392C581.43 873.346 583.73 873.328 586.352 873.429C588.269 873.391 590.443 873.294 592.335 873.352C589.028 866.807 587.514 862.934 584.841 856.053C582.58 861.711 580.116 867.435 578.824 873.392Z"/><path fill="#1C4E75" d="M787.001 843.921C789.53 843.766 792.05 843.833 794.585 843.857C796.834 847.814 800.021 855.969 801.864 860.383C805.665 869.311 809.347 878.289 812.908 887.316L805.154 887.239C803.068 883.298 801.986 881.559 801.067 877.219L794.772 877.533L781.446 877.571L777.437 887.683L769.041 887.792C775.389 874.075 780.774 858.224 787.001 843.921ZM784.93 870.346L791.799 870.429L798.227 870.377C795.963 866.465 791.654 854.638 790.62 853.531C788.314 859.234 786.161 864.268 784.93 870.346Z"/><path fill="#1C4E75" d="M498.417 847.666C500.338 847.616 503.19 847.927 505.177 848.082C506.262 849.871 507.259 852.349 508.104 854.3C513.449 866.637 518.176 879.292 524.069 891.386C521.123 891.32 518.671 891.393 515.738 891.512C513.717 887.497 512.897 885.827 511.604 881.575L505.539 881.607C501.265 881.763 496.538 881.691 492.227 881.718C491.009 885.139 489.708 888.53 488.324 891.887L479.921 891.91C485.829 880.539 492.368 856.519 498.417 847.666ZM495.273 874.486L502.02 874.571C504.057 874.571 506.612 874.648 508.599 874.559C507.533 872.059 502.506 859.876 501.214 858.571C499.287 863.473 496.715 869.522 495.273 874.486Z"/><path fill="#1C4E75" d="M276.143 851.269C278.455 851.288 280.001 851.037 281.208 853.382C283.65 858.129 285.588 863.213 287.638 868.15C291.279 877.162 295.123 886.09 299.165 894.928L290.319 894.782C288.958 890.938 288.117 889.34 286.97 885.167L278.475 885.272L267.357 885.31C265.932 888.951 264.719 891.791 263.037 895.316L255.328 895.316C257.49 889.28 260.269 883.052 262.69 876.744C265.655 869.021 268.865 860.001 272.516 852.529C273.074 851.387 274.807 851.46 276.143 851.269ZM270.137 878.43C272.649 878.345 274.929 878.252 277.452 878.351L283.728 878.236C282.402 875.436 277.714 864.088 276.382 862.718C273.865 868.234 272.001 872.565 270.137 878.43Z"/><path fill="#1C4E75" d="M690.54 777.626L698.106 777.708C704.753 789.384 710.353 808.835 717.277 821.115L708.206 820.985C706.629 817.786 706.267 813.892 704.036 811.432C703.553 810.899 701.939 811.117 700.998 811.116C696.293 811.347 689.591 811.44 684.984 811.039C684.06 814.109 682.499 818.037 681.369 821.12L673.556 821.089C677.586 809.406 685.435 788.622 690.54 777.626ZM687.552 804.371C690.229 804.363 693.055 804.31 695.719 804.354L701.751 804.289C700.661 801.949 695.505 789.931 694.148 788.725C691.913 793.863 689.521 799.142 687.552 804.371Z"/><path fill="#1C4E75" d="M829.187 775.606L829.296 775.646C830.097 777.1 829.627 780.964 829.568 782.988C822.518 782.745 815.014 782.916 807.952 782.998L808.209 793.839C814.139 793.494 821.278 793.558 827.304 793.465C827.138 795.729 827.203 798.459 827.196 800.765L808.203 800.731C808.26 804.658 808.247 808.586 808.163 812.512C813.966 812.168 820.691 812.183 826.562 812.077C828.133 811.965 828.474 811.815 829.967 812.334C830.967 814.201 830.546 816.758 830.557 819.205C821.061 819.641 809.246 819.126 800.317 819.89C799.931 805.643 800.155 790.455 800.128 776.137C809.646 776.132 819.664 775.827 829.187 775.606Z"/><path fill="#1C4E75" d="M615.704 778.69C618.469 778.665 621.12 778.64 623.886 778.733C623.907 788.608 624.766 798.938 623.668 807.899C621.698 823.986 603.645 827.135 593.27 817.749C585.858 811.043 588.192 786.884 588.727 778.707L596.317 778.664C596.778 784.577 596.744 790.099 596.748 795.974C596.751 798.962 596.355 804.989 597.212 807.626C601.108 819.618 610.006 817.688 615.707 809.129L615.14 802.273C615.522 795.637 614.459 784.961 615.704 778.69Z"/><path fill="#B3C2CD" d="M615.704 778.69C616.544 782.369 616.511 801.13 615.928 804.43L615.14 802.273C615.522 795.637 614.459 784.961 615.704 778.69Z"/><path fill="#1C4E75" d="M881.557 775.017L881.683 775.076C882.548 776.626 882.072 780.035 882.013 782.163C875.104 782.171 868.195 782.233 861.287 782.351C861.437 786.43 861.456 789.168 861.21 793.228C867.671 792.94 873.408 793.048 880.023 792.555L879.758 800.145C875.023 799.772 866.57 800.078 861.559 800.129C861.562 804.047 861.537 807.965 861.484 811.883C867.497 811.539 873.599 811.555 879.626 811.497C881.892 811.576 881.878 811.191 883.329 812.297C884.038 814.102 883.428 816.615 883.149 818.639L853.458 818.991C853.546 804.21 853.154 790.513 853.539 775.503C862.768 775.113 872.257 775.249 881.557 775.017Z"/><path fill="#1C4E75" d="M482.189 780.475L511.311 780.17L511.284 787.197C504.209 787.368 497.134 787.468 490.057 787.495C490.095 791.208 490.074 794.922 489.995 798.634C495.343 798 503.455 798.098 509.079 798.028C508.911 800.364 508.864 802.827 508.777 805.178C506.153 805.083 491.231 804.914 490.036 805.927C490.182 810.227 490.28 812.991 489.889 817.237C496.296 816.741 505.879 816.901 512.501 816.817L512.003 824.094C502.903 823.758 491.502 824.182 482.232 824.267L482.189 780.475Z"/><path fill="#1C4E75" d="M677.986 845.245C685.04 845.094 692.095 845.006 699.151 844.981L699.132 852.133L677.805 852.328L677.915 863.41C684.157 863.153 690.572 863.05 696.83 862.876L696.57 870.758C689.383 870.094 684.95 870.089 677.81 870.281L677.845 876.461C677.826 878.586 677.651 879.655 678.361 881.608C682.842 882.182 695.589 881.63 700.482 881.279L700.141 888.924C692.009 888.563 678.396 888.771 670.246 889.156L670.167 845.463L677.986 845.245Z"/><path fill="#1C4E75" d="M642.085 845.62C651.133 844.725 655.592 846.645 662.543 851.974C660.414 853.885 658.972 855.2 657.029 857.321C639.103 843.001 625.317 865.115 635.804 877.969C638.056 880.77 641.363 882.517 644.945 882.799C656.727 883.793 654.235 877.032 653.733 868.822C653.895 867.919 653.855 868.216 654.449 867.391C656.539 866.639 659.13 866.906 661.425 866.947C661.528 870.231 662.33 882.492 661.07 884.155C655.345 891.707 640.165 890.652 633.982 886.754C629.275 883.795 625.953 879.07 624.761 873.638C621.717 859.947 628.039 848.698 642.085 845.62Z"/><path fill="#1C4E75" d="M406.426 849.186C407.144 849.15 407.862 849.121 408.58 849.099C411.838 849 423.386 849.535 423.218 853.996C421.85 855.878 421.537 856.725 420.56 858.883C414.396 855.905 412.536 855.434 405.791 856.381C399.578 861.84 400.649 864.882 408.339 867.078C420.759 870.624 427.712 873.026 423.669 887.639C419.13 892.639 415.043 893.106 408.749 893.729C403.989 893.486 395.317 892.687 393.623 887.543C393.649 885.35 394.776 884.017 395.947 882.08C403.369 886.389 404.363 886.98 412.983 886.628C420.588 879.466 416.522 877.051 407.758 874.743C397.499 872.041 388.776 867.14 395.216 855.359C397.463 851.249 402.288 850.131 406.426 849.186Z"/><path fill="#1C4E75" d="M531.183 779.455C537.714 779.044 541.138 780.149 546.877 782.89L544.139 789.568C538.917 786.078 525.002 783.572 524.812 792.461C528.749 799.751 548.545 798.189 549.125 809.888C549.641 820.285 540.566 823.89 531.563 824.044C525.108 823.461 522.211 822.402 516.685 819.375C517.569 816.701 518.368 814.983 519.534 812.464C523.696 814.911 527.626 817.727 532.392 817.06C547.306 814.924 542.18 807.072 530.896 804.813C526.228 803.878 517.991 800.971 517.346 795.278C516.161 784.82 521.908 780.875 531.183 779.455Z"/><path fill="#1C4E75" d="M720.76 844.202C726.353 844.461 729.862 845.071 734.748 848.093C733.965 850.172 733.027 852.338 732.177 854.404L730.583 853.625C725.892 851.336 716.278 849.265 713.807 854.106C708.086 865.312 736.962 861.482 736.504 874.595C736.073 886.935 727.375 888.748 717.724 888.863C711.661 888.158 708.612 886.784 703.58 883.675C704.914 881.75 705.978 879.7 707.111 877.648C711.976 880.157 714.567 881.808 720.27 881.932C724.079 882.015 728.817 880.952 728.784 876.087C725.641 867.993 705.469 870.838 704.874 858.655C704.372 848.383 711.73 844.99 720.76 844.202Z"/><path fill="#1C4E75" d="M288.407 783.056C289.652 783.098 290.895 783.196 292.131 783.35C296.474 783.932 305.267 786.183 304.246 791.869C302.921 793.829 302.016 794.18 299.962 795.5C277.881 776.117 265.295 816.265 287.286 820.786C291.78 821.71 296.345 818.249 299.62 815.463C301.744 815.86 303.79 818.58 305.215 820.215C301.47 824.093 298.368 826.552 292.752 827.635C286.938 828.742 280.926 827.392 276.143 823.906C260.211 812.219 265.733 785.54 288.407 783.056Z"/><path fill="#1C4E75" d="M202.185 784.618C206.949 784.407 212.107 784.545 216.904 784.583C216.82 787.302 217.537 789.043 217.264 790.969C215.293 792.363 199.14 792.016 195.539 792.036C195.593 796.619 195.606 800.566 195.379 805.165C201.839 804.736 208.378 804.792 214.858 804.756C214.789 807.119 214.822 809.601 214.814 811.975L205.621 811.911L195.572 812.014C195.743 817.595 195.664 823.163 195.626 828.746L187.431 828.768C187.171 814.125 187.22 799.478 187.577 784.837C192.448 784.928 197.32 784.855 202.185 784.618Z"/><path fill="#1C4E75" d="M769.881 843.767C770.577 843.62 770.522 843.724 771.298 843.892C771.971 845.82 771.677 849.019 771.621 851.181C767.305 851.153 762.812 851.265 758.48 851.31C759.147 862.673 760.226 876.898 759.292 887.895L750.287 887.864L750.051 879.262C749.994 869.885 749.786 860.92 750.802 851.59C747.596 851.624 740.536 851.973 737.838 851.25C737.433 850.696 736.814 849.981 736.584 849.341C736.19 848.241 736.171 847.316 736.884 846.345C739.687 842.526 764.187 844.099 769.881 843.767Z"/><path fill="#1C4E75" d="M563.112 786.796C560.037 786.847 552.844 787.223 550.127 786.366C549.315 784.144 548.691 782.597 549.639 780.363C551.897 778.528 578.655 779.13 584.033 779.082L584.016 786.469C579.569 786.561 575.195 785.532 571.665 787.006C570.63 788.786 571.093 788.86 571.358 791.436C572.243 795.719 571.991 802.612 571.911 807.136C572.069 811.633 571.264 818.533 570.858 823.188C568.533 823.009 565.658 823.094 563.284 823.099C563.229 811.181 562.929 798.655 563.112 786.796Z"/><path fill="#4485BF" d="M571.358 791.436C572.243 795.719 571.991 802.612 571.911 807.136C571.729 807.94 571.487 808.67 571.152 809.423L571.622 808.574L570.887 808.418C570.661 804.555 570.614 795.053 571.358 791.436Z"/><path fill="#1C4E75" d="M761.221 776.392C769.799 776.916 785.96 776.211 795.168 776.13C795.085 778.655 795.195 781.005 795.285 783.522C791.736 783.617 785.444 782.628 782.664 784.104C782.086 784.41 782.222 785.935 782.163 786.845C783.259 793.708 782.9 801.049 782.706 808.018C782.846 810.838 782.233 817.116 782.017 820.171C779.43 820.025 776.94 820.115 774.353 820.167C774.18 808.072 774.116 795.976 774.16 783.88C769.879 783.809 765.417 783.889 761.12 783.902L761.221 776.392Z"/><path fill="#3A6185" d="M782.163 786.845C783.259 793.708 782.9 801.049 782.706 808.018C781.093 803.452 781.563 791.83 782.163 786.845Z"/><path fill="#1C4E75" d="M797.817 831.254C800.27 831.356 799.975 830.928 801.225 832.223C801.981 835.892 800.511 838.603 796.687 839.597C792.764 840.617 789.842 838.244 786.731 836.169C785.677 837.706 784.595 839.175 783.494 840.678C781.327 840.38 781.819 840.774 780.508 839.505C779.642 835.756 781.387 832.954 785.174 832.059C789.022 831.15 791.582 833.348 794.576 835.401C795.626 833.805 796.582 832.719 797.817 831.254Z"/></svg>